PathFileType	4	(X/Y/Z)	/home/nbianco/projects/addbio/data/HamnerRunning2013/Processed/subject20//results/MarkerData/run300.trc
DataRate	CameraRate	NumFrames	NumMarkers	Units	OrigDataRate	OrigDataStartFrame	OrigNumFrames
120.005	120.005	9	42	m	120.005	60	242
Frame#	Time	C7			CLAV			LACR			LASI			LCAL			LFAradius			LFAsuperior			LFAulna			LLEL			LMEL			LMT5			LPSI			LTB1			LTB2			LTB3			LTH1			LTH2			LTH3			LTOE			LUA1			LUA2			LUA3			RACR			RASI			RCAL			RFAradius			RFAsuperior			RFAulna			RLEL			RMEL			RMT5			RPSI			RTB1			RTB2			RTB3			RTH1			RTH2			RTH3			RTOE			RUA1			RUA2			RUA3		
		X1	Y1	Z1	X2	Y2	Z2	X3	Y3	Z3	X4	Y4	Z4	X5	Y5	Z5	X6	Y6	Z6	X7	Y7	Z7	X8	Y8	Z8	X9	Y9	Z9	X10	Y10	Z10	X11	Y11	Z11	X12	Y12	Z12	X13	Y13	Z13	X14	Y14	Z14	X15	Y15	Z15	X16	Y16	Z16	X17	Y17	Z17	X18	Y18	Z18	X19	Y19	Z19	X20	Y20	Z20	X21	Y21	Z21	X22	Y22	Z22	X23	Y23	Z23	X24	Y24	Z24	X25	Y25	Z25	X26	Y26	Z26	X27	Y27	Z27	X28	Y28	Z28	X29	Y29	Z29	X30	Y30	Z30	X31	Y31	Z31	X32	Y32	Z32	X33	Y33	Z33	X34	Y34	Z34	X35	Y35	Z35	X36	Y36	Z36	X37	Y37	Z37	X38	Y38	Z38	X39	Y39	Z39	X40	Y40	Z40	X41	Y41	Z41	X42	Y42	Z42

61	0.666667	0.693304	1.48055	-0.398664	0.818904	1.3835	-0.358337	0.728969	1.41025	-0.581354	0.724627	0.984201	-0.516438	0.410914	0.109575	-0.401779	0.863877	1.1626	-0.592701	0.739785	1.16821	-0.719725	0.879564	1.11246	-0.635109	0.669212	1.16262	-0.743016	0.631351	1.10641	-0.684499	0.598396	0.0588014	-0.47867	0.556241	1.00467	-0.413655	0.674792	0.347541	-0.436589	0.593327	0.262489	-0.479502	0.572682	0.189242	-0.401252	0.675878	0.840475	-0.553824	0.73251	0.726253	-0.537641	0.667678	0.58709	-0.523753	0.625248	0.0705789	-0.390575	0.697445	1.34107	-0.63808	0.637088	1.2717	-0.625985	0.683161	1.25954	-0.687146	0.715425	1.43389	-0.201686	0.730675	0.980395	-0.262093	0.447105	0.479853	-0.304833	0.762268	1.08342	-0.173353	0.634667	1.14998	-0.0863443	0.714861	1.03305	-0.165061	0.563672	1.19567	-0.0650914	0.51402	1.18396	-0.136961	0.439603	0.291947	-0.217909	0.560798	1.00352	-0.328721	0.77262	0.432447	-0.278428	0.697908	0.45273	-0.227126	0.597229	0.405834	-0.297232	0.740047	0.806107	-0.214417	0.850256	0.723581	-0.233799	0.829554	0.591554	-0.216453	0.466346	0.260628	-0.304299	0.661472	1.33972	-0.138515	0.659681	1.26927	-0.134179	0.557987	1.28372	-0.111897
62	0.675	0.693774	1.48527	-0.397869	0.818554	1.3889	-0.355311	0.73272	1.41498	-0.579861	0.724256	0.985935	-0.517698	0.386769	0.113166	-0.402299	0.869165	1.16968	-0.585138	0.747579	1.17129	-0.714567	0.885621	1.11765	-0.625133	0.677549	1.16486	-0.739606	0.638052	1.1097	-0.680571	0.573058	0.0588663	-0.478762	0.557058	1.00916	-0.414349	0.652493	0.349374	-0.435857	0.570012	0.265699	-0.479134	0.549146	0.191685	-0.401651	0.671709	0.842557	-0.553181	0.724066	0.726943	-0.536483	0.652331	0.58996	-0.52227	0.600528	0.0704556	-0.391261	0.702984	1.34485	-0.636518	0.642173	1.2756	-0.625061	0.690182	1.26261	-0.684678	0.711678	1.43919	-0.201181	0.730349	0.98613	-0.262412	0.460488	0.462081	-0.304159	0.757134	1.09189	-0.167459	0.626516	1.1582	-0.0856551	0.709736	1.04143	-0.162008	0.554759	1.2032	-0.0668999	0.507493	1.19135	-0.140624	0.467665	0.274017	-0.217557	0.561193	1.00882	-0.329438	0.789603	0.43761	-0.27941	0.713656	0.452777	-0.22762	0.61665	0.398214	-0.296316	0.743651	0.814014	-0.214603	0.85564	0.734368	-0.234825	0.839141	0.602181	-0.217316	0.497201	0.245373	-0.305118	0.655805	1.34616	-0.13851	0.65351	1.2758	-0.133615	0.551057	1.29074	-0.114168
63	0.683333	0.694055	1.49039	-0.396848	0.818145	1.395	-0.352266	0.736394	1.42059	-0.57809	0.724522	0.987918	-0.518894	0.363703	0.118393	-0.403498	0.873057	1.17753	-0.577514	0.754697	1.17556	-0.709445	0.890031	1.12367	-0.614761	0.685389	1.16844	-0.736374	0.643359	1.11454	-0.677263	0.547729	0.0589648	-0.478658	0.558196	1.01394	-0.415085	0.63044	0.352445	-0.435012	0.547057	0.270095	-0.478835	0.526144	0.195113	-0.402285	0.668804	0.845077	-0.552401	0.716162	0.728087	-0.535031	0.63686	0.594107	-0.520289	0.576232	0.0705557	-0.391887	0.708539	1.34973	-0.634943	0.647215	1.28087	-0.624602	0.697393	1.26687	-0.682412	0.708085	1.44484	-0.200806	0.730365	0.992336	-0.262649	0.474747	0.442773	-0.304232	0.7522	1.10111	-0.162019	0.619388	1.1676	-0.0850204	0.705194	1.05059	-0.158739	0.546867	1.21149	-0.06858	0.501276	1.19926	-0.143771	0.497095	0.255996	-0.217463	0.56191	1.01452	-0.330059	0.805791	0.442649	-0.280322	0.728878	0.452352	-0.228185	0.636006	0.389758	-0.295255	0.747345	0.822479	-0.214939	0.86044	0.745153	-0.236061	0.847558	0.612393	-0.218254	0.52924	0.229957	-0.305555	0.650508	1.35319	-0.138453	0.647883	1.2828	-0.133095	0.544776	1.29838	-0.116105
64	0.691667	0.694204	1.49579	-0.395629	0.817649	1.4016	-0.349188	0.73998	1.42684	-0.576114	0.725449	0.990299	-0.519891	0.341918	0.125399	-0.405359	0.87555	1.18567	-0.569975	0.761001	1.18079	-0.704634	0.892888	1.13032	-0.604443	0.692549	1.17311	-0.733356	0.647638	1.12053	-0.6747	0.522472	0.0590939	-0.478405	0.559643	1.01904	-0.416038	0.609013	0.357041	-0.434258	0.524878	0.275983	-0.478903	0.504019	0.199762	-0.403247	0.666817	0.848012	-0.551611	0.708831	0.729775	-0.533437	0.622014	0.599452	-0.518179	0.552473	0.0709012	-0.392405	0.71394	1.3555	-0.633359	0.652071	1.28731	-0.62471	0.704488	1.27208	-0.680281	0.704734	1.45065	-0.200418	0.730717	0.998766	-0.262953	0.490091	0.422053	-0.304963	0.747555	1.11068	-0.156868	0.613015	1.17741	-0.0842061	0.701175	1.06001	-0.155255	0.539809	1.22015	-0.0700204	0.495503	1.2074	-0.146391	0.527923	0.2382	-0.217403	0.562946	1.02042	-0.330703	0.82108	0.44737	-0.281121	0.743608	0.451349	-0.228802	0.655335	0.380977	-0.294637	0.750931	0.831176	-0.215321	0.864686	0.755743	-0.237402	0.854746	0.621984	-0.219163	0.562278	0.214491	-0.305104	0.645656	1.36054	-0.1383	0.642809	1.29008	-0.132512	0.539151	1.30635	-0.11773
65	0.7	0.694324	1.50137	-0.394261	0.817013	1.40853	-0.346104	0.743457	1.43345	-0.574004	0.726957	0.993176	-0.520507	0.321452	0.134102	-0.407664	0.876744	1.19372	-0.56262	0.766419	1.18677	-0.700252	0.894382	1.13734	-0.594575	0.698934	1.17869	-0.730622	0.651137	1.12727	-0.672952	0.497426	0.0592795	-0.478146	0.561481	1.02443	-0.417377	0.588518	0.363205	-0.433781	0.503804	0.283431	-0.479545	0.483014	0.205764	-0.404569	0.665318	0.851297	-0.550845	0.702091	0.732063	-0.531811	0.608366	0.605729	-0.516282	0.529256	0.0714194	-0.392849	0.719029	1.36195	-0.631756	0.656591	1.29461	-0.62531	0.71116	1.27798	-0.678215	0.701649	1.45649	-0.199874	0.731422	1.00528	-0.263491	0.506683	0.400054	-0.306227	0.743274	1.1203	-0.15184	0.607156	1.18709	-0.0831062	0.697593	1.06929	-0.151501	0.533401	1.22883	-0.0711485	0.490283	1.21551	-0.148522	0.560067	0.220856	-0.21721	0.564335	1.02642	-0.33157	0.835392	0.451717	-0.281844	0.757835	0.449684	-0.229502	0.674817	0.372199	-0.294812	0.754298	0.839811	-0.215707	0.868366	0.765931	-0.238693	0.860622	0.630924	-0.220035	0.596248	0.199214	-0.303774	0.641325	1.36791	-0.138018	0.638257	1.29744	-0.131804	0.534177	1.31435	-0.119039
66	0.708333	0.694504	1.507	-0.392815	0.816205	1.41557	-0.343069	0.746802	1.44021	-0.571809	0.728943	0.996494	-0.520627	0.302344	0.144299	-0.410141	0.876814	1.20151	-0.555582	0.770971	1.19335	-0.696317	0.894749	1.14452	-0.585471	0.704538	1.18499	-0.728287	0.653924	1.13452	-0.672006	0.472796	0.0595793	-0.478049	0.563766	1.03005	-0.419143	0.569205	0.370729	-0.433717	0.484066	0.292225	-0.480806	0.463313	0.213077	-0.406244	0.664031	0.854823	-0.550081	0.695957	0.734882	-0.53018	0.596055	0.61266	-0.514772	0.506504	0.0719388	-0.393317	0.723741	1.36884	-0.630143	0.660703	1.30247	-0.62622	0.717204	1.28434	-0.67623	0.698809	1.46231	-0.199117	0.732498	1.01186	-0.264397	0.52465	0.376967	-0.307873	0.739387	1.12973	-0.146892	0.601707	1.19636	-0.0817342	0.694343	1.07821	-0.147391	0.527552	1.23731	-0.0719398	0.485632	1.2234	-0.150209	0.593366	0.204113	-0.216851	0.566118	1.03254	-0.332845	0.848676	0.45566	-0.282563	0.771535	0.4473	-0.230328	0.694633	0.36346	-0.295705	0.757421	0.848208	-0.216073	0.871438	0.775495	-0.239798	0.865055	0.639213	-0.221001	0.631198	0.184511	-0.302051	0.637538	1.37509	-0.137597	0.634192	1.30467	-0.130939	0.529819	1.32216	-0.120031
67	0.716667	0.694798	1.51257	-0.391378	0.815262	1.42248	-0.340124	0.75002	1.44691	-0.569559	0.731338	1.00004	-0.520242	0.284745	0.155762	-0.412614	0.875959	1.20897	-0.549044	0.774733	1.20029	-0.692846	0.894217	1.15167	-0.577349	0.709405	1.19181	-0.726457	0.65597	1.14212	-0.671763	0.448803	0.0600728	-0.478221	0.566428	1.03581	-0.421192	0.551341	0.379251	-0.434133	0.465826	0.301965	-0.482576	0.445107	0.221452	-0.408244	0.662938	0.858469	-0.549301	0.690454	0.738072	-0.528492	0.584889	0.620087	-0.513649	0.484139	0.0722942	-0.393901	0.72812	1.37595	-0.628554	0.66442	1.31063	-0.627249	0.722552	1.29099	-0.674436	0.696186	1.46801	-0.198213	0.733922	1.01853	-0.265678	0.544084	0.353065	-0.309733	0.735878	1.13876	-0.142086	0.59668	1.20515	-0.0801576	0.691358	1.08664	-0.142888	0.522261	1.24545	-0.0723964	0.481473	1.23095	-0.151465	0.627641	0.188109	-0.216415	0.568276	1.03879	-0.334544	0.860903	0.45913	-0.28332	0.784697	0.444193	-0.231279	0.714829	0.354638	-0.296948	0.760316	0.856321	-0.216376	0.873853	0.784211	-0.240644	0.867895	0.646755	-0.222282	0.667171	0.170808	-0.300476	0.634241	1.38193	-0.137046	0.630585	1.31157	-0.129923	0.526019	1.32963	-0.120716
68	0.725	0.695222	1.51796	-0.390031	0.814301	1.42899	-0.337266	0.753162	1.45341	-0.567277	0.734104	1.00357	-0.51939	0.268877	0.168303	-0.41502	0.874368	1.21611	-0.54317	0.777797	1.20735	-0.689884	0.892973	1.15868	-0.570328	0.713572	1.1989	-0.725153	0.657264	1.14997	-0.672068	0.425599	0.0608527	-0.47867	0.569275	1.04165	-0.423243	0.535251	0.388305	-0.435045	0.449218	0.312185	-0.484657	0.42861	0.230462	-0.410532	0.662202	0.862152	-0.548519	0.685614	0.741483	-0.526688	0.574693	0.627926	-0.512845	0.462164	0.0724935	-0.394632	0.732277	1.38306	-0.627028	0.667792	1.31893	-0.628272	0.727235	1.29777	-0.672949	0.693767	1.47346	-0.197301	0.735595	1.02526	-0.267169	0.565025	0.328683	-0.311622	0.732726	1.14726	-0.137501	0.592137	1.2134	-0.0784317	0.688656	1.09455	-0.13805	0.517568	1.25316	-0.0725247	0.477719	1.23806	-0.152279	0.662758	0.173031	-0.216012	0.570678	1.0451	-0.336433	0.872069	0.462022	-0.284101	0.797334	0.440431	-0.232278	0.735289	0.345658	-0.298158	0.762983	0.864161	-0.216561	0.875577	0.791876	-0.241213	0.869049	0.653334	-0.224062	0.704071	0.158467	-0.299285	0.631335	1.38836	-0.136383	0.627405	1.31801	-0.128798	0.522715	1.33665	-0.121111
69	0.733333	0.695762	1.52309	-0.388803	0.813466	1.4349	-0.334461	0.756304	1.45958	-0.564997	0.737166	1.00691	-0.518071	0.254899	0.181787	-0.417331	0.872202	1.22287	-0.538012	0.780229	1.21429	-0.687471	0.891162	1.16538	-0.564427	0.717049	1.20603	-0.724309	0.65786	1.15795	-0.672769	0.403178	0.0620367	-0.479322	0.57212	1.04745	-0.425002	0.521277	0.397325	-0.436409	0.43438	0.322405	-0.486834	0.413977	0.239602	-0.413025	0.66199	0.865859	-0.547778	0.681449	0.745031	-0.524825	0.565597	0.635984	-0.51232	0.440694	0.0728194	-0.395499	0.736307	1.39004	-0.625584	0.670875	1.32725	-0.629259	0.73133	1.30455	-0.671815	0.691559	1.47854	-0.196499	0.737326	1.03195	-0.268582	0.587412	0.304159	-0.313337	0.729943	1.15513	-0.133127	0.588129	1.22106	-0.0765667	0.686333	1.10192	-0.132994	0.513494	1.26032	-0.0723284	0.47437	1.24465	-0.152646	0.69863	0.159135	-0.21569	0.573087	1.0513	-0.338123	0.882171	0.464245	-0.284867	0.809467	0.436144	-0.23319	0.755809	0.336594	-0.299146	0.765374	0.871669	-0.216596	0.876609	0.798332	-0.241497	0.868566	0.658697	-0.226375	0.741618	0.147769	-0.298418	0.628723	1.39436	-0.135635	0.624617	1.32393	-0.127613	0.519854	1.34315	-0.121224
